<?xml version="1.0" encoding="UTF-8" standalone="no"?>
<!-- Created with Inkscape (http://www.inkscape.org/) -->

<svg
   xmlns:dc="http://purl.org/dc/elements/1.1/"
   xmlns:cc="http://creativecommons.org/ns#"
   xmlns:rdf="http://www.w3.org/1999/02/22-rdf-syntax-ns#"
   xmlns:svg="http://www.w3.org/2000/svg"
   xmlns="http://www.w3.org/2000/svg"
   xmlns:sodipodi="http://sodipodi.sourceforge.net/DTD/sodipodi-0.dtd"
   xmlns:inkscape="http://www.inkscape.org/namespaces/inkscape"
   width="744.09448819"
   height="1052.3622047"
   id="svg2"
   version="1.1"
   inkscape:version="0.48.1 r9760"
   sodipodi:docname="toy.svg">
  <sodipodi:namedview
     id="base"
     pagecolor="#ffffff"
     bordercolor="#666666"
     borderopacity="1.0"
     inkscape:pageopacity="0.0"
     inkscape:pageshadow="2"
     inkscape:zoom="0.7"
     inkscape:cx="256.95847"
     inkscape:cy="658.15811"
     inkscape:document-units="px"
     inkscape:current-layer="layer1"
     showgrid="false"
     inkscape:window-width="1920"
     inkscape:window-height="1016"
     inkscape:window-x="-4"
     inkscape:window-y="-4"
     inkscape:window-maximized="1" />
  <defs
     id="defs4">
    <filter
       inkscape:collect="always"
       id="filter3789"
       x="-0.27985765"
       width="1.5597153"
       y="-0.073136135"
       height="1.1462723">
      <feGaussianBlur
         inkscape:collect="always"
         stdDeviation="4.0812575"
         id="feGaussianBlur3791" />
    </filter>
    <filter
       inkscape:collect="always"
       id="filter4145"
       x="-0.048929579"
       width="1.0978592"
       y="-0.13623529"
       height="1.2724706">
      <feGaussianBlur
         inkscape:collect="always"
         stdDeviation="2.9243914"
         id="feGaussianBlur4147" />
    </filter>
    <filter
       inkscape:collect="always"
       id="filter4149"
       x="-0.045535136"
       width="1.0910703"
       y="-0.17191835"
       height="1.3438367">
      <feGaussianBlur
         inkscape:collect="always"
         stdDeviation="3.5456355"
         id="feGaussianBlur4151" />
    </filter>
  </defs>
  <metadata
     id="metadata7">
    <rdf:RDF>
      <cc:Work
         rdf:about="">
        <dc:format>image/svg+xml</dc:format>
        <dc:type
           rdf:resource="http://purl.org/dc/dcmitype/StillImage" />
        <dc:title></dc:title>
      </cc:Work>
    </rdf:RDF>
  </metadata>
  <g
     inkscape:label="Layer 1"
     inkscape:groupmode="layer"
     id="layer1">
    <g
       id="g4153"
       transform="matrix(1.8534735,0,0,1.8534735,-40.879767,-67.554482)">
      <path
         sodipodi:nodetypes="ccccc"
         inkscape:connector-curvature="0"
         id="path4111"
         d="m 261.92177,424.61951 133.34014,-18.18275 -107.07618,-31.31473 -79.80204,5.05076 z"
         style="opacity:0.25;fill:#000000;stroke:none;filter:url(#filter4149)" />
      <path
         sodipodi:nodetypes="ccccc"
         inkscape:connector-curvature="0"
         id="path4109"
         d="m 64.942029,419.56874 119.197991,9.09138 24.24366,-50.50763 -83.84265,-1.01015 z"
         style="opacity:0.25;fill:#000000;stroke:none;filter:url(#filter4145)" />
      <path
         sodipodi:nodetypes="ccccc"
         inkscape:connector-curvature="0"
         id="path2985"
         d="m 62.857139,408.07647 c 0,-34.28571 -14.28571,-148.57143 -14.28571,-148.57143 l 132.597171,-6.37781 2.69869,164.21393 z"
         style="fill:#ff7f2a;stroke:#000000;stroke-width:1px;stroke-linecap:butt;stroke-linejoin:miter;stroke-opacity:1" />
      <path
         sodipodi:nodetypes="ccccc"
         inkscape:connector-curvature="0"
         id="path2987"
         d="m 265.51124,412.47858 -4.1842,-160.4902 136.01887,-11.91879 -3.04532,155.78608 z"
         style="fill:#abc837;stroke:#000000;stroke-width:1px;stroke-linecap:butt;stroke-linejoin:miter;stroke-opacity:1" />
      <path
         sodipodi:nodetypes="ccccc"
         inkscape:connector-curvature="0"
         id="path2989"
         d="m 180.66353,253.459 28.84371,-14.90463 3.20377,121.31217 -30.02718,56.96954 z"
         style="fill:#d45500;stroke:#000000;stroke-width:1px;stroke-linecap:butt;stroke-linejoin:miter;stroke-opacity:1" />
      <path
         sodipodi:nodetypes="ccccc"
         inkscape:connector-curvature="0"
         id="path2991"
         d="M 48.398109,258.49489 111.74547,242.73855 209.3488,239.21789 180,253.79076 z"
         style="fill:#ffb380;stroke:#000000;stroke-width:1px;stroke-linecap:butt;stroke-linejoin:miter;stroke-opacity:1" />
      <path
         inkscape:connector-curvature="0"
         id="path2993"
         d="m 265.4573,411.9926 -58.58884,-39.39595 -1.01016,-130.30968 55.05332,9.59645 z"
         style="fill:#88aa00;stroke:#000000;stroke-width:1px;stroke-linecap:butt;stroke-linejoin:miter;stroke-opacity:1" />
      <path
         inkscape:connector-curvature="0"
         id="path2995"
         d="m 310.91417,237.23621 86.87312,2.0203 -137.38075,12.12183 -55.05331,-9.09137 z"
         style="fill:#bcd35f;stroke:#000000;stroke-width:1px;stroke-linecap:butt;stroke-linejoin:miter;stroke-opacity:1" />
      <path
         sodipodi:nodetypes="cccc"
         inkscape:connector-curvature="0"
         id="path3015"
         d="m 227.5,239.86219 -10.71428,138.57142 -15,0.71429 L 192.5,240.57647"
         style="opacity:0.28205136;fill:#000000;stroke:none;filter:url(#filter3789)" />
      <path
         inkscape:connector-curvature="0"
         id="path2997"
         d="M 133.12732,248.85296 292.22635,243.29712 282.6299,79.652406 140.19839,84.198096 z"
         style="fill:#ff0000;stroke:#000000;stroke-width:1px;stroke-linecap:butt;stroke-linejoin:miter;stroke-opacity:1" />
      <g
         id="text3007-3"
         style="font-size:139.13874817px;font-style:normal;font-variant:normal;font-weight:bold;font-stretch:normal;text-align:start;line-height:125%;letter-spacing:0px;word-spacing:0px;writing-mode:lr-tb;text-anchor:start;fill:#000000;fill-opacity:1;stroke:none;font-family:Droid Serif;-inkscape-font-specification:Droid Serif Bold"
         transform="matrix(0.74404205,-0.01302744,-0.07087798,0.7780381,-93.144824,32.171226)">
        <path
           id="path3818"
           d="m 574.70389,463.73739 c 0,0 -0.0793,-10.04985 -0.0793,-10.04985 0,0 8.54945,-1.05615 8.54945,-1.05615 1.48123,-0.18297 2.84287,-0.44359 4.0853,-0.78196 1.30104,-0.34548 2.42371,-0.94618 3.36851,-1.80231 0.94483,-0.91795 1.68266,-2.18097 2.21372,-3.79007 0.59065,-1.6179 0.88573,-3.75881 0.88476,-6.4257 0,0 -0.0102,-26.81961 -0.0102,-26.81961 0,0 -35.26841,-67.46194 -35.26841,-67.46194 -0.96506,-1.92633 -1.89629,-3.55571 -2.79327,-4.88679 -0.83561,-1.33899 -1.76179,-2.36565 -2.77846,-3.07916 -1.01882,-0.78184 -2.19196,-1.31133 -3.51946,-1.58807 -1.26565,-0.28291 -2.84365,-0.33099 -4.73427,-0.14393 0,0 -2.55463,0.25294 -2.55463,0.25294 0,0 -0.21889,-11.07143 -0.21889,-11.07143 0,0 64.36659,-6.22913 64.36659,-6.22913 0,0 -0.0471,10.95379 -0.0471,10.95379 0,0 -3.2303,0.31984 -3.2303,0.31984 -3.82037,0.3784 -6.69001,1.50534 -8.60375,3.37974 -1.8512,1.86759 -2.77475,4.21243 -2.77138,7.03074 0.002,1.74189 0.28125,3.62036 0.83697,5.6344 0.61603,1.93779 1.29233,3.73267 2.02882,5.38524 0,0 13.78561,28.15305 13.78561,28.15305 1.90334,3.99388 3.44231,7.52891 4.61998,10.61025 1.23387,3.06568 2.34525,6.0718 3.33481,9.01904 1.28157,-3.58626 2.74774,-7.48846 4.39949,-11.70858 1.71611,-4.30127 3.61796,-8.79437 5.70639,-13.4804 0,0 11.05808,-25.14596 11.05808,-25.14596 1.37309,-3.10383 2.25807,-5.66771 2.65357,-7.68976 0.4573,-2.09694 0.696,-3.71072 0.71561,-4.8399 0.0608,-3.526 -0.92401,-5.99053 -2.9578,-7.38877 -1.97744,-1.40684 -5.03474,-1.90673 -9.17419,-1.497 0,0 -4.29915,0.42567 -4.29915,0.42567 0,0 0.12094,-10.92044 0.12094,-10.92044 0,0 48.77868,-4.7206 48.77868,-4.7206 0,0 -0.31645,10.83069 -0.31645,10.83069 0,0 -3.5023,0.34677 -3.5023,0.34677 -1.55833,0.15443 -2.91384,0.5213 -4.06589,1.10062 -1.09244,0.57372 -2.16422,1.51068 -3.21489,2.81042 -0.9904,1.29339 -2.05077,3.02388 -3.18057,5.19015 -1.06882,2.15812 -2.35922,4.89722 -3.87006,8.21466 0,0 -32.18811,69.01338 -32.18811,69.01338 0,0 -0.28511,26.22942 -0.28511,26.22942 -0.0303,2.77883 0.20941,4.90381 0.71851,6.3779 0.5082,1.47204 1.19505,2.55235 2.06044,3.242 0.92264,0.68181 1.96476,1.04243 3.12655,1.08235 1.21903,0.0327 2.52587,-0.0371 3.92046,-0.20937 0,0 8.78449,-1.08519 8.78449,-1.08519 0,0 -0.18103,9.94668 -0.18103,9.94668 0,0 -66.2728,8.32233 -66.2728,8.32233"
           inkscape:connector-curvature="0" />
      </g>
      <g
         transform="matrix(0.64600258,-0.03367074,0.03871781,0.73608061,142.69751,128.24799)"
         style="font-size:146.59709167px;font-style:normal;font-variant:normal;font-weight:bold;font-stretch:normal;text-align:start;line-height:125%;letter-spacing:0px;word-spacing:0px;writing-mode:lr-tb;text-anchor:start;fill:#000000;fill-opacity:1;stroke:none;font-family:Droid Serif;-inkscape-font-specification:Droid Serif Bold"
         id="text3003-1">
        <path
           inkscape:connector-curvature="0"
           d="m 11.861638,282.2004 c 0.363236,11.61873 -0.912114,22.04481 -3.7860307,31.28692 -2.7589112,9.09216 -7.0053453,16.69988 -12.697877,22.85282 -5.5292803,6.0498 -12.3625333,10.53752 -20.4633613,13.50126 -7.898652,2.91576 -16.977958,4.09044 -27.210634,3.56788 -10.543154,-0.53841 -19.752144,-2.59572 -27.710454,-6.15571 -7.832578,-3.52693 -14.476614,-8.29596 -19.978447,-14.3258 -5.497424,-6.02492 -9.908504,-13.2062 -13.252534,-21.58745 -3.37227,-8.49552 -5.6538,-17.96231 -6.83973,-28.46106 -1.20156,-10.63686 -1.06432,-20.42449 0.44053,-29.35793 1.52069,-9.13519 4.48626,-17.11156 8.93424,-23.90768 4.58381,-6.91401 10.721853,-12.4803 18.459126,-16.66655 7.935979,-4.33717 17.632879,-6.93428 29.142878,-7.74245 11.059035,-0.77617 21.143235,0.50014 30.165006,3.86333 9.173701,3.31773 17.066724,8.44518 23.6176915,15.36414 6.5554635,6.85432 11.6318008,15.26746 15.203742,25.17987 3.6154887,9.76962 5.6026095,20.65981 5.9758545,32.58841 m -101.753993,0.66746 c 0.878613,9.32012 2.217768,17.54017 4.015476,24.70249 1.784975,7.11198 4.13997,13.12386 7.069911,18.06559 2.918531,4.87115 6.449067,8.64198 10.606076,11.32625 4.230677,2.69551 9.224136,4.16529 15.010504,4.40422 5.903075,0.24377 10.841481,-0.83835 14.802052,-3.26621 4.063604,-2.44996 7.269259,-6.11312 9.604302,-11.00932 2.356067,-5.01203 3.925382,-11.22035 4.695433,-18.64701 0.844636,-7.5104 1.011206,-16.17239 0.487654,-26.01085 -0.530228,-9.95957 -1.649765,-18.92532 -3.363505,-26.85027 -1.659333,-7.98816 -4.041641,-14.73602 -7.142465,-20.20596 -3.112343,-5.55334 -6.99036,-9.68222 -11.615747,-12.36936 -4.613365,-2.7483 -10.066284,-3.93454 -16.322874,-3.56894 -6.257991,0.36599 -11.401397,2.14341 -15.445977,5.30976 -4.008061,3.06438 -7.073613,7.39232 -9.210339,12.96181 -2.119768,5.44213 -3.40039,12.00005 -3.855099,19.65287 -0.449722,7.56792 -0.22434,16.07617 0.664598,25.50493"
           id="path3899" />
      </g>
      <g
         id="text2999-5"
         style="font-size:151.78837585px;font-style:normal;font-variant:normal;font-weight:bold;font-stretch:normal;text-align:start;line-height:125%;letter-spacing:0px;word-spacing:0px;writing-mode:lr-tb;text-anchor:start;fill:#000000;fill-opacity:1;stroke:none;font-family:Droid Serif;-inkscape-font-specification:Droid Serif Bold"
         transform="matrix(0.52046044,-0.02324685,0.02284254,0.4164851,227.27358,30.131856)">
        <path
           sodipodi:nodetypes="ccccccccccccccccccccccccccccccccc"
           id="path3980"
           d="m -16.024388,384.72235 c 0.09106,6.74338 0.707451,12.22581 1.858974,16.37923 1.166472,4.20864 2.744269,7.50337 4.7330786,9.85559 2.1430981,2.37445 4.5605608,4.02428 7.2467587,4.93811 2.68858118,0.74922 5.5819129,1.17078 8.6764854,1.2631 l 18.2063813,0.54343 2.137674,28.7811 -152.849124,-5.26447 4.12221,-27.892 17.46274,0.52121 c 3.12394,0.0932 6.015922,-0.15023 8.671311,-0.7302 2.669218,-0.74303 5.068604,-2.22933 7.191372,-4.44935 2.109196,-2.20595 3.890481,-5.36726 5.340258,-9.45613 1.431776,-4.03861 2.440531,-9.42055 3.030004,-16.07668 l 15.648426,-176.72645 -23.007932,0.0926 c -4.283298,0.0174 -7.924,0.417 -10.932151,1.20027 -3.015718,0.78552 -5.587318,1.92137 -7.718598,3.41268 -2.03582,1.42131 -3.7263,3.2066 -5.07196,5.36447 -1.26311,2.17765 -2.35406,4.6609 -3.27226,7.4595 l -5.21354,16.31719 -20.46057,-0.0304 20.22066,-60.76676 164.327633,1.70447 13.341043,59.35606 -21.508749,-0.0319 -4.354393,-16.72246 c -0.74409,-2.86288 -1.742841,-5.4006 -2.993753,-7.62293 -1.140494,-2.20038 -2.767988,-4.01562 -4.879822,-5.45435 -2.008436,-1.50829 -4.548652,-2.64837 -7.621267,-3.42583 -3.059292,-0.7737 -6.7960257,-1.15046 -11.2156517,-1.13282 l -23.5301433,0.0947 2.414905,178.49905"
           inkscape:connector-curvature="0" />
      </g>
    </g>
  </g>
</svg>
