<?xml version="1.0" encoding="UTF-8" standalone="no"?>
<!-- Created with Inkscape (http://www.inkscape.org/) -->

<svg
   xmlns:dc="http://purl.org/dc/elements/1.1/"
   xmlns:cc="http://creativecommons.org/ns#"
   xmlns:rdf="http://www.w3.org/1999/02/22-rdf-syntax-ns#"
   xmlns:svg="http://www.w3.org/2000/svg"
   xmlns="http://www.w3.org/2000/svg"
   xmlns:xlink="http://www.w3.org/1999/xlink"
   xmlns:sodipodi="http://sodipodi.sourceforge.net/DTD/sodipodi-0.dtd"
   xmlns:inkscape="http://www.inkscape.org/namespaces/inkscape"
   width="744.09448819"
   height="1052.3622047"
   id="svg2"
   version="1.1"
   inkscape:version="0.48.1 r9760"
   sodipodi:docname="toy_fine.svg"
   inkscape:export-filename="/home/teknopaul/Pictures/nodetoy.png"
   inkscape:export-xdpi="105.59345"
   inkscape:export-ydpi="105.59345">
  <sodipodi:namedview
     id="base"
     pagecolor="#ffffff"
     bordercolor="#666666"
     borderopacity="1.0"
     inkscape:pageopacity="0.0"
     inkscape:pageshadow="2"
     inkscape:zoom="0.7"
     inkscape:cx="425.87339"
     inkscape:cy="547.49419"
     inkscape:document-units="px"
     inkscape:current-layer="layer1"
     showgrid="false"
     inkscape:window-width="1324"
     inkscape:window-height="955"
     inkscape:window-x="377"
     inkscape:window-y="36"
     inkscape:window-maximized="0"
     showguides="true"
     inkscape:guide-bbox="true" />
  <defs
     id="defs4">
    <linearGradient
       id="linearGradient4539">
      <stop
         style="stop-color:#ff7f2a;stop-opacity:1;"
         offset="0"
         id="stop4541" />
      <stop
         style="stop-color:#ef5f00;stop-opacity:1;"
         offset="1"
         id="stop4543" />
    </linearGradient>
    <linearGradient
       id="linearGradient4531">
      <stop
         style="stop-color:#abc837;stop-opacity:1;"
         offset="0"
         id="stop4533" />
      <stop
         style="stop-color:#98b231;stop-opacity:1;"
         offset="1"
         id="stop4535" />
    </linearGradient>
    <linearGradient
       id="linearGradient4521">
      <stop
         style="stop-color:#fa0000;stop-opacity:1;"
         offset="0"
         id="stop4523" />
      <stop
         style="stop-color:#e60000;stop-opacity:1;"
         offset="1"
         id="stop4525" />
    </linearGradient>
    <filter
       inkscape:collect="always"
       id="filter3789"
       x="-0.27985765"
       width="1.5597153"
       y="-0.073136135"
       height="1.1462723">
      <feGaussianBlur
         inkscape:collect="always"
         stdDeviation="4.0812575"
         id="feGaussianBlur3791" />
    </filter>
    <filter
       inkscape:collect="always"
       id="filter4145"
       x="-0.048929579"
       width="1.0978592"
       y="-0.13623529"
       height="1.2724706">
      <feGaussianBlur
         inkscape:collect="always"
         stdDeviation="2.9243914"
         id="feGaussianBlur4147" />
    </filter>
    <filter
       inkscape:collect="always"
       id="filter4149"
       x="-0.045535136"
       width="1.0910703"
       y="-0.17191835"
       height="1.3438367">
      <feGaussianBlur
         inkscape:collect="always"
         stdDeviation="3.5456355"
         id="feGaussianBlur4151" />
    </filter>
    <filter
       inkscape:collect="always"
       id="filter4227">
      <feGaussianBlur
         inkscape:collect="always"
         stdDeviation="5.7725453"
         id="feGaussianBlur4229" />
    </filter>
    <filter
       inkscape:collect="always"
       id="filter4464">
      <feGaussianBlur
         inkscape:collect="always"
         stdDeviation="4.6955718"
         id="feGaussianBlur4466" />
    </filter>
    <filter
       inkscape:collect="always"
       id="filter4517">
      <feGaussianBlur
         inkscape:collect="always"
         stdDeviation="3.5896298"
         id="feGaussianBlur4519" />
    </filter>
    <linearGradient
       inkscape:collect="always"
       xlink:href="#linearGradient4521"
       id="linearGradient4527"
       x1="-203.44073"
       y1="318.85024"
       x2="102.08528"
       y2="318.85024"
       gradientUnits="userSpaceOnUse" />
    <linearGradient
       inkscape:collect="always"
       xlink:href="#linearGradient4521"
       id="linearGradient4529"
       gradientUnits="userSpaceOnUse"
       x1="-40.889587"
       y1="122.47588"
       x2="-46.013336"
       y2="519.95709" />
    <linearGradient
       inkscape:collect="always"
       xlink:href="#linearGradient4531"
       id="linearGradient4537"
       x1="555.5437"
       y1="390.71399"
       x2="572.29297"
       y2="680.62775"
       gradientUnits="userSpaceOnUse" />
    <linearGradient
       inkscape:collect="always"
       xlink:href="#linearGradient4539"
       id="linearGradient4545"
       x1="158.30762"
       y1="410.76147"
       x2="185.95921"
       y2="707.74634"
       gradientUnits="userSpaceOnUse" />
    <filter
       inkscape:collect="always"
       id="filter4591">
      <feGaussianBlur
         inkscape:collect="always"
         stdDeviation="3.8249222"
         id="feGaussianBlur4593" />
    </filter>
  </defs>
  <metadata
     id="metadata7">
    <rdf:RDF>
      <cc:Work
         rdf:about="">
        <dc:format>image/svg+xml</dc:format>
        <dc:type
           rdf:resource="http://purl.org/dc/dcmitype/StillImage" />
        <dc:title></dc:title>
      </cc:Work>
    </rdf:RDF>
  </metadata>
  <g
     inkscape:label="Layer 1"
     inkscape:groupmode="layer"
     id="layer1">
    <text
       xml:space="preserve"
       style="font-size:56.02838135px;font-style:normal;font-weight:normal;text-align:start;line-height:125%;letter-spacing:0px;word-spacing:0px;text-anchor:start;fill:#9d9d9d;fill-opacity:1;stroke:none;filter:url(#filter4591);font-family:Sans"
       x="59.546661"
       y="834.12512"
       id="text4557-5"
       sodipodi:linespacing="125%"
       transform="matrix(1.0228268,0,0,1.0228268,-1.1924306,-17.664846)"><tspan
         sodipodi:role="line"
         id="tspan4559-3"
         x="59.546661"
         y="834.12512"
         style="font-size:67.23406219px;font-style:normal;font-variant:normal;font-weight:normal;font-stretch:normal;text-align:start;text-anchor:start;fill:#9d9d9d;fill-opacity:1;font-family:Droid Serif;-inkscape-font-specification:Droid Serif">nodetoy</tspan><tspan
         sodipodi:role="line"
         x="59.546661"
         y="918.16772"
         style="font-size:67.23406219px;font-style:normal;font-variant:normal;font-weight:normal;font-stretch:normal;text-align:start;text-anchor:start;fill:#9d9d9d;fill-opacity:1;font-family:Droid Serif;-inkscape-font-specification:Droid Serif"
         id="tspan4561-1">an instant backend</tspan></text>
    <path
       style="opacity:0.25;fill:#000000;stroke:none;filter:url(#filter4149)"
       d="m 261.92177,424.61951 133.34014,-18.18275 -107.07618,-31.31473 -79.80204,5.05076 z"
       id="path4111"
       inkscape:connector-curvature="0"
       sodipodi:nodetypes="ccccc"
       transform="matrix(1.8534735,0,0,1.8534735,-40.879767,-67.554482)" />
    <path
       style="opacity:0.25;fill:#000000;stroke:none;filter:url(#filter4145)"
       d="m 64.942029,419.56874 119.197991,9.09138 24.24366,-50.50763 -83.84265,-1.01015 z"
       id="path4109"
       inkscape:connector-curvature="0"
       sodipodi:nodetypes="ccccc"
       transform="matrix(1.8534735,0,0,1.8534735,-40.879767,-67.554482)" />
    <path
       style="fill:#ff7f2a;fill-opacity:1;stroke:#c87f2a;stroke-width:1;stroke-linecap:butt;stroke-linejoin:round;stroke-miterlimit:4;stroke-opacity:1;stroke-dasharray:none"
       d="m 75.624274,688.80444 c 0,-63.54765 -26.478184,-275.37321 -26.478184,-275.37321 l 245.76534,-11.8211 3.10791,303.10348 z"
       id="path2985"
       inkscape:connector-curvature="0"
       sodipodi:nodetypes="ccccc" />
    <path
       style="fill:#abc837;stroke:#90a82e;stroke-width:1;stroke-linecap:round;stroke-linejoin:round;stroke-opacity:1;stroke-miterlimit:4;stroke-dasharray:none"
       d="m 451.23828,696.96364 -7.7553,-297.46434 252.10737,-22.09116 -5.64442,288.74537 z"
       id="path2987"
       inkscape:connector-curvature="0"
       sodipodi:nodetypes="ccccc" />
    <path
       style="fill:#d45500;stroke:#c87f2a;stroke-width:1;stroke-linecap:butt;stroke-linejoin:round;stroke-miterlimit:4;stroke-opacity:1;stroke-dasharray:none"
       d="m 292.99316,402.67149 54.44319,-28.07177 5.9381,224.84889 -55.65458,105.59154 z"
       id="path2989"
       inkscape:connector-curvature="0"
       sodipodi:nodetypes="ccccc" />
    <path
       style="fill:#ffb380;stroke:#c87f2a;stroke-width:1;stroke-linecap:butt;stroke-linejoin:round;stroke-miterlimit:4;stroke-opacity:1;stroke-dasharray:none"
       d="M 49.181988,413.25538 166.2375,382.35499 347.14269,375.82954 292.74546,402.83997 z"
       id="path2991"
       inkscape:connector-curvature="0"
       sodipodi:nodetypes="ccccc" />
    <path
       style="fill:#88aa00;stroke:#90a82e;stroke-width:1;stroke-linecap:butt;stroke-linejoin:miter;stroke-miterlimit:4;stroke-opacity:1;stroke-dasharray:none"
       d="M 451.1383,696.06288 342.54544,623.04353 340.67314,381.518 443.60587,399.6619 z"
       id="path2993"
       inkscape:connector-curvature="0"
       sodipodi:nodetypes="ccccc" />
    <path
       style="fill:#bcd35f;stroke:#90a82e;stroke-width:1;stroke-linecap:butt;stroke-linejoin:round;stroke-miterlimit:4;stroke-opacity:1;stroke-dasharray:none"
       d="M 535.39141,372.15655 695.60486,377.32969 443.65185,399.61861 339.737,381.518 z"
       id="path2995"
       inkscape:connector-curvature="0"
       sodipodi:nodetypes="ccccc" />
    <path
       style="opacity:0.28205136;fill:#000000;stroke:none;filter:url(#filter3789)"
       d="m 227.5,239.86219 -10.71428,138.57142 -15,0.71429 L 192.5,240.57647"
       id="path3015"
       inkscape:connector-curvature="0"
       sodipodi:nodetypes="cccc"
       transform="matrix(1.8534735,0,0,1.8534735,-40.879767,-67.554482)" />
    <path
       style="fill:#ff0000;stroke:#c80000;stroke-width:1;stroke-linecap:butt;stroke-linejoin:round;stroke-opacity:1;stroke-miterlimit:4;stroke-dasharray:none"
       d="M 205.86819,393.68788 500.75403,383.39028 482.96726,80.079142 218.97423,88.504458 z"
       id="path2997"
       inkscape:connector-curvature="0" />
    <g
       transform="matrix(1.3790622,-0.02414601,-0.13137046,1.442073,-220.49431,-5.2784174)"
       style="font-size:139.13874817px;font-style:normal;font-variant:normal;font-weight:bold;font-stretch:normal;text-align:start;line-height:125%;letter-spacing:0px;word-spacing:0px;writing-mode:lr-tb;text-anchor:start;fill:#ffffff;fill-opacity:1;stroke:none;filter:url(#filter4517);font-family:Droid Serif;-inkscape-font-specification:Droid Serif Bold"
       id="text3007-3-9">
      <path
         inkscape:connector-curvature="0"
         d="m 574.70389,463.73739 c 0,0 -0.0793,-10.04985 -0.0793,-10.04985 0,0 8.54945,-1.05615 8.54945,-1.05615 1.48123,-0.18297 2.84287,-0.44359 4.0853,-0.78196 1.30104,-0.34548 2.42371,-0.94618 3.36851,-1.80231 0.94483,-0.91795 1.68266,-2.18097 2.21372,-3.79007 0.59065,-1.6179 0.88573,-3.75881 0.88476,-6.4257 0,0 -0.0102,-26.81961 -0.0102,-26.81961 0,0 -35.26841,-67.46194 -35.26841,-67.46194 -0.96506,-1.92633 -1.89629,-3.55571 -2.79327,-4.88679 -0.83561,-1.33899 -1.76179,-2.36565 -2.77846,-3.07916 -1.01882,-0.78184 -2.19196,-1.31133 -3.51946,-1.58807 -1.26565,-0.28291 -2.84365,-0.33099 -4.73427,-0.14393 0,0 -2.55463,0.25294 -2.55463,0.25294 0,0 -0.21889,-11.07143 -0.21889,-11.07143 0,0 64.36659,-6.22913 64.36659,-6.22913 0,0 -0.0471,10.95379 -0.0471,10.95379 0,0 -3.2303,0.31984 -3.2303,0.31984 -3.82037,0.3784 -6.69001,1.50534 -8.60375,3.37974 -1.8512,1.86759 -2.77475,4.21243 -2.77138,7.03074 0.002,1.74189 0.28125,3.62036 0.83697,5.6344 0.61603,1.93779 1.29233,3.73267 2.02882,5.38524 0,0 13.78561,28.15305 13.78561,28.15305 1.90334,3.99388 3.44231,7.52891 4.61998,10.61025 1.23387,3.06568 2.34525,6.0718 3.33481,9.01904 1.28157,-3.58626 2.74774,-7.48846 4.39949,-11.70858 1.71611,-4.30127 3.61796,-8.79437 5.70639,-13.4804 0,0 11.05808,-25.14596 11.05808,-25.14596 1.37309,-3.10383 2.25807,-5.66771 2.65357,-7.68976 0.4573,-2.09694 0.696,-3.71072 0.71561,-4.8399 0.0608,-3.526 -0.92401,-5.99053 -2.9578,-7.38877 -1.97744,-1.40684 -5.03474,-1.90673 -9.17419,-1.497 0,0 -4.29915,0.42567 -4.29915,0.42567 0,0 0.12094,-10.92044 0.12094,-10.92044 0,0 48.77868,-4.7206 48.77868,-4.7206 0,0 -0.31645,10.83069 -0.31645,10.83069 0,0 -3.5023,0.34677 -3.5023,0.34677 -1.55833,0.15443 -2.91384,0.5213 -4.06589,1.10062 -1.09244,0.57372 -2.16422,1.51068 -3.21489,2.81042 -0.9904,1.29339 -2.05077,3.02388 -3.18057,5.19015 -1.06882,2.15812 -2.35922,4.89722 -3.87006,8.21466 0,0 -32.18811,69.01338 -32.18811,69.01338 0,0 -0.28511,26.22942 -0.28511,26.22942 -0.0303,2.77883 0.20941,4.90381 0.71851,6.3779 0.5082,1.47204 1.19505,2.55235 2.06044,3.242 0.92264,0.68181 1.96476,1.04243 3.12655,1.08235 1.21903,0.0327 2.52587,-0.0371 3.92046,-0.20937 0,0 8.78449,-1.08519 8.78449,-1.08519 0,0 -0.18103,9.94668 -0.18103,9.94668 0,0 -66.2728,8.32233 -66.2728,8.32233"
         id="path3818-9"
         style="fill:#ffffff;fill-opacity:1" />
    </g>
    <g
       transform="matrix(1.3790622,-0.02414601,-0.13137046,1.442073,-213.52123,-7.9259671)"
       style="font-size:139.13874816999998529px;font-style:normal;font-variant:normal;font-weight:bold;font-stretch:normal;text-align:start;line-height:125%;letter-spacing:0px;word-spacing:0px;writing-mode:lr-tb;text-anchor:start;fill:#000000;fill-opacity:1;stroke:none;font-family:Droid Serif;-inkscape-font-specification:Droid Serif Bold;opacity:0.75"
       id="text3007-3">
      <path
         inkscape:connector-curvature="0"
         d="m 574.70389,463.73739 c 0,0 -0.0793,-10.04985 -0.0793,-10.04985 0,0 8.54945,-1.05615 8.54945,-1.05615 1.48123,-0.18297 2.84287,-0.44359 4.0853,-0.78196 1.30104,-0.34548 2.42371,-0.94618 3.36851,-1.80231 0.94483,-0.91795 1.68266,-2.18097 2.21372,-3.79007 0.59065,-1.6179 0.88573,-3.75881 0.88476,-6.4257 0,0 -0.0102,-26.81961 -0.0102,-26.81961 0,0 -35.26841,-67.46194 -35.26841,-67.46194 -0.96506,-1.92633 -1.89629,-3.55571 -2.79327,-4.88679 -0.83561,-1.33899 -1.76179,-2.36565 -2.77846,-3.07916 -1.01882,-0.78184 -2.19196,-1.31133 -3.51946,-1.58807 -1.26565,-0.28291 -2.84365,-0.33099 -4.73427,-0.14393 0,0 -2.55463,0.25294 -2.55463,0.25294 0,0 -0.21889,-11.07143 -0.21889,-11.07143 0,0 64.36659,-6.22913 64.36659,-6.22913 0,0 -0.0471,10.95379 -0.0471,10.95379 0,0 -3.2303,0.31984 -3.2303,0.31984 -3.82037,0.3784 -6.69001,1.50534 -8.60375,3.37974 -1.8512,1.86759 -2.77475,4.21243 -2.77138,7.03074 0.002,1.74189 0.28125,3.62036 0.83697,5.6344 0.61603,1.93779 1.29233,3.73267 2.02882,5.38524 0,0 13.78561,28.15305 13.78561,28.15305 1.90334,3.99388 3.44231,7.52891 4.61998,10.61025 1.23387,3.06568 2.34525,6.0718 3.33481,9.01904 1.28157,-3.58626 2.74774,-7.48846 4.39949,-11.70858 1.71611,-4.30127 3.61796,-8.79437 5.70639,-13.4804 0,0 11.05808,-25.14596 11.05808,-25.14596 1.37309,-3.10383 2.25807,-5.66771 2.65357,-7.68976 0.4573,-2.09694 0.696,-3.71072 0.71561,-4.8399 0.0608,-3.526 -0.92401,-5.99053 -2.9578,-7.38877 -1.97744,-1.40684 -5.03474,-1.90673 -9.17419,-1.497 0,0 -4.29915,0.42567 -4.29915,0.42567 0,0 0.12094,-10.92044 0.12094,-10.92044 0,0 48.77868,-4.7206 48.77868,-4.7206 0,0 -0.31645,10.83069 -0.31645,10.83069 0,0 -3.5023,0.34677 -3.5023,0.34677 -1.55833,0.15443 -2.91384,0.5213 -4.06589,1.10062 -1.09244,0.57372 -2.16422,1.51068 -3.21489,2.81042 -0.9904,1.29339 -2.05077,3.02388 -3.18057,5.19015 -1.06882,2.15812 -2.35922,4.89722 -3.87006,8.21466 0,0 -32.18811,69.01338 -32.18811,69.01338 0,0 -0.28511,26.22942 -0.28511,26.22942 -0.0303,2.77883 0.20941,4.90381 0.71851,6.3779 0.5082,1.47204 1.19505,2.55235 2.06044,3.242 0.92264,0.68181 1.96476,1.04243 3.12655,1.08235 1.21903,0.0327 2.52587,-0.0371 3.92046,-0.20937 0,0 8.78449,-1.08519 8.78449,-1.08519 0,0 -0.18103,9.94668 -0.18103,9.94668 0,0 -66.2728,8.32233 -66.2728,8.32233"
         id="path3818" />
    </g>
    <g
       id="text3003-1-8"
       style="font-size:146.59709166999999752px;font-style:normal;font-variant:normal;font-weight:bold;font-stretch:normal;text-align:start;line-height:125%;letter-spacing:0px;word-spacing:0px;writing-mode:lr-tb;text-anchor:start;opacity:1;fill:#ffffff;fill-opacity:1;stroke:none;font-family:Droid Serif;-inkscape-font-specification:Droid Serif Bold;filter:url(#filter4464)"
       transform="matrix(1.1973487,-0.06240782,0.07176243,1.3643059,226.11984,173.12578)">
      <path
         id="path3899-5"
         d="m 11.861638,282.2004 c 0.363236,11.61873 -0.912114,22.04481 -3.7860307,31.28692 -2.7589112,9.09216 -7.0053453,16.69988 -12.697877,22.85282 -5.5292803,6.0498 -12.3625333,10.53752 -20.4633613,13.50126 -7.898652,2.91576 -16.977958,4.09044 -27.210634,3.56788 -10.543154,-0.53841 -19.752144,-2.59572 -27.710454,-6.15571 -7.832578,-3.52693 -14.476614,-8.29596 -19.978447,-14.3258 -5.497424,-6.02492 -9.908504,-13.2062 -13.252534,-21.58745 -3.37227,-8.49552 -5.6538,-17.96231 -6.83973,-28.46106 -1.20156,-10.63686 -1.06432,-20.42449 0.44053,-29.35793 1.52069,-9.13519 4.48626,-17.11156 8.93424,-23.90768 4.58381,-6.91401 10.721853,-12.4803 18.459126,-16.66655 7.935979,-4.33717 17.632879,-6.93428 29.142878,-7.74245 11.059035,-0.77617 21.143235,0.50014 30.165006,3.86333 9.173701,3.31773 17.066724,8.44518 23.6176915,15.36414 6.5554635,6.85432 11.6318008,15.26746 15.203742,25.17987 3.6154887,9.76962 5.6026095,20.65981 5.9758545,32.58841 m -101.753993,0.66746 c 0.878613,9.32012 2.217768,17.54017 4.015476,24.70249 1.784975,7.11198 4.13997,13.12386 7.069911,18.06559 2.918531,4.87115 6.449067,8.64198 10.606076,11.32625 4.230677,2.69551 9.224136,4.16529 15.010504,4.40422 5.903075,0.24377 10.841481,-0.83835 14.802052,-3.26621 4.063604,-2.44996 7.269259,-6.11312 9.604302,-11.00932 2.356067,-5.01203 3.925382,-11.22035 4.695433,-18.64701 0.844636,-7.5104 1.011206,-16.17239 0.487654,-26.01085 -0.530228,-9.95957 -1.649765,-18.92532 -3.363505,-26.85027 -1.659333,-7.98816 -4.041641,-14.73602 -7.142465,-20.20596 -3.112343,-5.55334 -6.99036,-9.68222 -11.615747,-12.36936 -4.613365,-2.7483 -10.066284,-3.93454 -16.322874,-3.56894 -6.257991,0.36599 -11.401397,2.14341 -15.445977,5.30976 -4.008061,3.06438 -7.073613,7.39232 -9.210339,12.96181 -2.119768,5.44213 -3.40039,12.00005 -3.855099,19.65287 -0.449722,7.56792 -0.22434,16.07617 0.664598,25.50493"
         inkscape:connector-curvature="0"
         style="fill:#ffffff;fill-opacity:1" />
    </g>
    <g
       id="text3003-1"
       style="font-size:146.59709166999999752px;font-style:normal;font-variant:normal;font-weight:bold;font-stretch:normal;text-align:start;line-height:125%;letter-spacing:0px;word-spacing:0px;writing-mode:lr-tb;text-anchor:start;fill:#000000;fill-opacity:1;stroke:none;font-family:Droid Serif;-inkscape-font-specification:Droid Serif Bold;opacity:0.75"
       transform="matrix(1.1973487,-0.06240782,0.07176243,1.3643059,223.60629,170.14977)">
      <path
         id="path3899"
         d="m 11.861638,282.2004 c 0.363236,11.61873 -0.912114,22.04481 -3.7860307,31.28692 -2.7589112,9.09216 -7.0053453,16.69988 -12.697877,22.85282 -5.5292803,6.0498 -12.3625333,10.53752 -20.4633613,13.50126 -7.898652,2.91576 -16.977958,4.09044 -27.210634,3.56788 -10.543154,-0.53841 -19.752144,-2.59572 -27.710454,-6.15571 -7.832578,-3.52693 -14.476614,-8.29596 -19.978447,-14.3258 -5.497424,-6.02492 -9.908504,-13.2062 -13.252534,-21.58745 -3.37227,-8.49552 -5.6538,-17.96231 -6.83973,-28.46106 -1.20156,-10.63686 -1.06432,-20.42449 0.44053,-29.35793 1.52069,-9.13519 4.48626,-17.11156 8.93424,-23.90768 4.58381,-6.91401 10.721853,-12.4803 18.459126,-16.66655 7.935979,-4.33717 17.632879,-6.93428 29.142878,-7.74245 11.059035,-0.77617 21.143235,0.50014 30.165006,3.86333 9.173701,3.31773 17.066724,8.44518 23.6176915,15.36414 6.5554635,6.85432 11.6318008,15.26746 15.203742,25.17987 3.6154887,9.76962 5.6026095,20.65981 5.9758545,32.58841 m -101.753993,0.66746 c 0.878613,9.32012 2.217768,17.54017 4.015476,24.70249 1.784975,7.11198 4.13997,13.12386 7.069911,18.06559 2.918531,4.87115 6.449067,8.64198 10.606076,11.32625 4.230677,2.69551 9.224136,4.16529 15.010504,4.40422 5.903075,0.24377 10.841481,-0.83835 14.802052,-3.26621 4.063604,-2.44996 7.269259,-6.11312 9.604302,-11.00932 2.356067,-5.01203 3.925382,-11.22035 4.695433,-18.64701 0.844636,-7.5104 1.011206,-16.17239 0.487654,-26.01085 -0.530228,-9.95957 -1.649765,-18.92532 -3.363505,-26.85027 -1.659333,-7.98816 -4.041641,-14.73602 -7.142465,-20.20596 -3.112343,-5.55334 -6.99036,-9.68222 -11.615747,-12.36936 -4.613365,-2.7483 -10.066284,-3.93454 -16.322874,-3.56894 -6.257991,0.36599 -11.401397,2.14341 -15.445977,5.30976 -4.008061,3.06438 -7.073613,7.39232 -9.210339,12.96181 -2.119768,5.44213 -3.40039,12.00005 -3.855099,19.65287 -0.449722,7.56792 -0.22434,16.07617 0.664598,25.50493"
         inkscape:connector-curvature="0" />
    </g>
    <g
       transform="matrix(0.96465963,-0.04308742,0.04233804,0.7719441,382.55317,-10.406527)"
       style="font-size:151.78837584999999422px;font-style:normal;font-variant:normal;font-weight:bold;font-stretch:normal;text-align:start;line-height:125%;letter-spacing:0px;word-spacing:0px;writing-mode:lr-tb;text-anchor:start;opacity:0.90000000000000002;fill:#ffffff;fill-opacity:1;stroke:none;font-family:Droid Serif;-inkscape-font-specification:Droid Serif Bold;filter:url(#filter4227)"
       id="text2999-5-7">
      <path
         inkscape:connector-curvature="0"
         d="m -16.024388,384.72235 c 0.09106,6.74338 0.707451,12.22581 1.858974,16.37923 1.166472,4.20864 2.744269,7.50337 4.7330786,9.85559 2.1430981,2.37445 4.5605608,4.02428 7.2467587,4.93811 2.68858118,0.74922 5.5819129,1.17078 8.6764854,1.2631 l 18.2063813,0.54343 2.137674,28.7811 -152.849124,-5.26447 4.12221,-27.892 17.46274,0.52121 c 3.12394,0.0932 6.015922,-0.15023 8.671311,-0.7302 2.669218,-0.74303 5.068604,-2.22933 7.191372,-4.44935 2.109196,-2.20595 3.890481,-5.36726 5.340258,-9.45613 1.431776,-4.03861 2.440531,-9.42055 3.030004,-16.07668 l 15.648426,-176.72645 -23.007932,0.0926 c -4.283298,0.0174 -7.924,0.417 -10.932151,1.20027 -3.015718,0.78552 -5.587318,1.92137 -7.718598,3.41268 -2.03582,1.42131 -3.7263,3.2066 -5.07196,5.36447 -1.26311,2.17765 -2.35406,4.6609 -3.27226,7.4595 l -5.21354,16.31719 -20.46057,-0.0304 20.22066,-60.76676 164.327633,1.70447 13.341043,59.35606 -21.508749,-0.0319 -4.354393,-16.72246 c -0.74409,-2.86288 -1.742841,-5.4006 -2.993753,-7.62293 -1.140494,-2.20038 -2.767988,-4.01562 -4.879822,-5.45435 -2.008436,-1.50829 -4.548652,-2.64837 -7.621267,-3.42583 -3.059292,-0.7737 -6.7960257,-1.15046 -11.2156517,-1.13282 l -23.5301433,0.0947 2.414905,178.49905"
         id="path3980-2"
         sodipodi:nodetypes="ccccccccccccccccccccccccccccccccc"
         style="fill:#ffffff;fill-opacity:1" />
    </g>
    <g
       transform="matrix(0.96465963,-0.04308742,0.04233804,0.7719441,380.36579,-11.705885)"
       style="font-size:151.78837584999999422px;font-style:normal;font-variant:normal;font-weight:bold;font-stretch:normal;text-align:start;line-height:125%;letter-spacing:0px;word-spacing:0px;writing-mode:lr-tb;text-anchor:start;fill:#000000;fill-opacity:1;stroke:none;font-family:Droid Serif;-inkscape-font-specification:Droid Serif Bold;opacity:0.75"
       id="text2999-5">
      <path
         inkscape:connector-curvature="0"
         d="m -16.024388,384.72235 c 0.09106,6.74338 0.707451,12.22581 1.858974,16.37923 1.166472,4.20864 2.744269,7.50337 4.7330786,9.85559 2.1430981,2.37445 4.5605608,4.02428 7.2467587,4.93811 2.68858118,0.74922 5.5819129,1.17078 8.6764854,1.2631 l 18.2063813,0.54343 2.137674,28.7811 -152.849124,-5.26447 4.12221,-27.892 17.46274,0.52121 c 3.12394,0.0932 6.015922,-0.15023 8.671311,-0.7302 2.669218,-0.74303 5.068604,-2.22933 7.191372,-4.44935 2.109196,-2.20595 3.890481,-5.36726 5.340258,-9.45613 1.431776,-4.03861 2.440531,-9.42055 3.030004,-16.07668 l 15.648426,-176.72645 -23.007932,0.0926 c -4.283298,0.0174 -7.924,0.417 -10.932151,1.20027 -3.015718,0.78552 -5.587318,1.92137 -7.718598,3.41268 -2.03582,1.42131 -3.7263,3.2066 -5.07196,5.36447 -1.26311,2.17765 -2.35406,4.6609 -3.27226,7.4595 l -5.21354,16.31719 -20.46057,-0.0304 20.22066,-60.76676 164.327633,1.70447 13.341043,59.35606 -21.508749,-0.0319 -4.354393,-16.72246 c -0.74409,-2.86288 -1.742841,-5.4006 -2.993753,-7.62293 -1.140494,-2.20038 -2.767988,-4.01562 -4.879822,-5.45435 -2.008436,-1.50829 -4.548652,-2.64837 -7.621267,-3.42583 -3.059292,-0.7737 -6.7960257,-1.15046 -11.2156517,-1.13282 l -23.5301433,0.0947 2.414905,178.49905"
         id="path3980"
         sodipodi:nodetypes="ccccccccccccccccccccccccccccccccc"
         style="fill:#000000;fill-opacity:1" />
    </g>
    <g
       transform="matrix(0.96465963,-0.04308742,0.04233804,0.7719441,380.58776,-11.420319)"
       style="font-size:151.78837584999999422px;font-style:normal;font-variant:normal;font-weight:bold;font-stretch:normal;text-align:start;line-height:125%;letter-spacing:0px;word-spacing:0px;writing-mode:lr-tb;text-anchor:start;fill:url(#linearGradient4527);fill-opacity:1;stroke:none;font-family:Droid Serif;-inkscape-font-specification:Droid Serif Bold"
       id="text2999-5-6">
      <path
         id="path3980-7"
         style="fill:url(#linearGradient4529);fill-opacity:1;stroke:none"
         d="m -16.024388,384.72235 c 0.09106,6.74338 0.707451,12.22581 1.858974,16.37923 1.166472,4.20864 2.744269,7.50337 4.7330786,9.85559 2.1430981,2.37445 4.5605608,4.02428 7.2467587,4.93811 2.68858118,0.74922 5.5819129,1.17078 8.6764854,1.2631 l 18.2063813,0.54343 2.137674,28.7811 -152.849124,-5.26447 4.12221,-27.892 17.46274,0.52121 c 3.12394,0.0932 6.015922,-0.15023 8.671311,-0.7302 2.669218,-0.74303 5.068604,-2.22933 7.191372,-4.44935 2.109196,-2.20595 3.890481,-5.36726 5.340258,-9.45613 1.431776,-4.03861 2.440531,-9.42055 3.030004,-16.07668 l 15.648426,-176.72645 -23.007932,0.0926 c -4.283298,0.0174 -7.924,0.417 -10.932151,1.20027 -3.015718,0.78552 -5.587318,1.92137 -7.718598,3.41268 -2.03582,1.42131 -3.7263,3.2066 -5.07196,5.36447 -1.26311,2.17765 -2.35406,4.6609 -3.27226,7.4595 l -5.21354,16.31719 -20.46057,-0.0304 20.22066,-60.76676 164.327633,1.70447 13.341043,59.35606 -21.508749,-0.0319 -4.354393,-16.72246 c -0.74409,-2.86288 -1.742841,-5.4006 -2.993753,-7.62293 -1.140494,-2.20038 -2.767988,-4.01562 -4.879822,-5.45435 -2.008436,-1.50829 -4.548652,-2.64837 -7.621267,-3.42583 -3.059292,-0.7737 -6.7960257,-1.15046 -11.2156517,-1.13282 l -23.5301433,0.0947 2.414905,178.49905 m -187.416342,129.0817 305.52601,3.71365 -1.19063,-392.98499 -273.47351,-4.34999 z"
         inkscape:connector-curvature="0" />
    </g>
    <path
       id="path3899-6"
       style="font-size:146.59709166999999752px;font-style:normal;font-variant:normal;font-weight:bold;font-stretch:normal;text-align:start;line-height:125%;letter-spacing:0px;word-spacing:0px;writing-mode:lr-tb;text-anchor:start;opacity:0.90000000000000002;fill:url(#linearGradient4545);fill-opacity:1;stroke:none;font-family:Droid Serif;-inkscape-font-specification:Droid Serif Bold"
       d="m 136.34396,561.71577 c 1.72084,12.66066 3.91417,23.79175 6.58064,33.45115 2.64761,9.59152 5.89878,17.6466 9.76158,24.20578 3.84406,6.46359 8.34195,11.38783 13.51197,14.79056 5.25903,3.41348 11.34341,5.10707 18.28886,5.07193 7.08553,-0.0358 12.92087,-1.82036 17.48883,-5.37987 4.68973,-3.5961 8.26514,-8.79382 10.70964,-15.61946 2.46136,-6.98498 3.89485,-15.55297 4.28392,-25.73326 0.47236,-10.2992 0.0502,-22.1272 -1.28271,-35.51719 -1.34959,-13.55481 -3.33347,-25.71697 -5.95413,-36.42207 -2.56005,-10.79474 -5.89675,-19.85221 -10.00205,-27.12137 -4.12508,-7.38222 -9.06472,-12.77326 -14.79576,-16.15068 -5.72103,-3.46161 -12.3352,-4.7397 -19.80028,-3.85045 -7.46674,0.88987 -13.49764,3.63581 -18.11318,8.20809 -4.57914,4.43089 -7.93909,10.52683 -10.09782,18.25867 -2.14756,7.55702 -3.2103,16.58395 -3.20556,27.05312 0.005,10.35302 0.88505,21.94681 2.62605,34.75505 M 294.99239,401.6461 49.211136,413.4586 c 0,0 26.46875,211.82735 26.46875,275.375 L 298.08614,704.73985 294.99239,401.6461 z m -122.4375,51.65625 c 9.50209,-0.23648 18.40483,1.16846 26.6875,4.1875 11.22221,3.95389 21.03469,10.438 29.375,19.46875 8.34106,8.94228 15.04305,20.10561 20.03125,33.40625 5.03009,13.10312 8.16582,27.84279 9.46875,44.09375 1.26871,15.82883 0.49659,30.11783 -2.28125,42.90625 -2.6509,12.57666 -7.18811,23.219 -13.5625,31.96875 -6.18633,8.59885 -14.04442,15.16974 -23.53125,19.71875 -9.2482,4.47092 -20.02291,6.63683 -32.3125,6.5625 -12.66247,-0.0766 -23.84066,-2.32725 -33.625,-6.6875 -9.63143,-4.323 -17.91717,-10.39806 -24.9375,-18.28125 -7.0147,-7.87675 -12.83208,-17.3991 -17.4375,-28.625 -4.64745,-11.38003 -8.04536,-24.15675 -10.21875,-38.40625 -2.202014,-14.43694 -2.754494,-27.81189 -1.593754,-40.09375 1.16523,-12.55809 4.161924,-23.60668 9.000004,-33.15625 4.99225,-9.71889 11.94245,-17.71206 20.90625,-23.90625 9.19088,-6.41249 20.58901,-10.5541 34.3125,-12.375 3.29646,-0.43727 6.55139,-0.70242 9.71875,-0.78125 z"
       inkscape:connector-curvature="0" />
    <path
       style="fill:url(#linearGradient4537);stroke:#90a82e;stroke-width:1;stroke-linecap:round;stroke-linejoin:round;stroke-miterlimit:4;stroke-opacity:1;stroke-dasharray:none;fill-opacity:1"
       d="m 696.04174,377.40486 -252.12498,22.09375 7.75,297.46875 238.71878,-30.8125 5.6562,-288.75 z m -21.8125,48.8125 -1.8437,15.625 -4.875,0.59375 c -2.1694,0.26033 -4.0853,0.82426 -5.75,1.6875 -1.5821,0.85372 -3.1929,2.22531 -4.8126,4.125 -1.5356,1.88907 -3.2199,4.4113 -5.0624,7.5625 -1.7575,3.13798 -3.9182,7.11703 -6.4376,11.9375 l -53.4374,100.28125 -3.8438,37.84375 c -0.4069,4.008 -0.3521,7.07405 0.1562,9.1875 0.5074,2.11052 1.3034,3.65137 2.4063,4.625 1.1828,0.96094 2.5905,1.43923 4.1875,1.46875 1.6768,0.0177 3.4917,-0.0929 5.4375,-0.375 l 12.25,-1.78125 -1.5625,14.34375 -92.49998,13.59375 1.21875,-14.5 11.93745,-1.71875 c 2.0667,-0.29962 3.961,-0.70079 5.7188,-1.21875 1.8396,-0.52962 3.4909,-1.43008 4.9062,-2.6875 1.4235,-1.34656 2.5876,-3.19798 3.5313,-5.53125 1.0271,-2.34739 1.7135,-5.43542 2.0625,-9.28125 l 3.5312,-38.65625 -39.7812,-96.4375 c -1.07782,-2.7546 -2.15662,-5.10214 -3.21875,-7 -0.97645,-1.91074 -2.12918,-3.37062 -3.4375,-4.375 -1.3023,-1.10287 -2.83065,-1.82047 -4.625,-2.1875 -1.70824,-0.37741 -3.89939,-0.40919 -6.53125,-0.0937 l -3.53125,0.4375 1.15625,-15.96875 89.56248,-10.53125 -1.5,15.78125 -4.5,0.53125 c -5.3182,0.63793 -9.427,2.34452 -12.31248,5.09375 -2.7982,2.7379 -4.3844,6.15462 -4.75,10.21875 -0.2261,2.51188 -0.0645,5.20277 0.4375,8.09375 0.595,2.77956 1.2952,5.35341 2.0938,7.71875 l 15.31238,40.25 c 2.1002,5.71351 3.7495,10.77241 4.9688,15.1875 1.2988,4.39114 2.4288,8.71126 3.4062,12.9375 2.2385,-5.2026 4.7615,-10.8744 7.5938,-17 2.9316,-6.24418 6.1606,-12.75447 9.6562,-19.5625 l 18.5626,-36.53125 c 2.3013,-4.5091 3.8452,-8.23076 4.6562,-11.15625 0.9061,-3.03499 1.4496,-5.37117 1.625,-7 0.5471,-5.08622 -0.4728,-8.62649 -3.0938,-10.59375 -2.5422,-1.98102 -6.7063,-2.62831 -12.4687,-1.9375 l -6,0.71875 1.625,-15.75 67.875,-7.96875 z"
       id="path2987-1"
       inkscape:connector-curvature="0" />
    <text
       xml:space="preserve"
       style="font-size:57.30733109px;font-style:normal;font-weight:normal;text-align:start;line-height:125%;letter-spacing:0px;word-spacing:0px;text-anchor:start;fill:#000000;fill-opacity:1;stroke:none;font-family:Sans"
       x="57.012615"
       y="834.03278"
       id="text4557"
       sodipodi:linespacing="125%"><tspan
         sodipodi:role="line"
         id="tspan4559"
         x="57.012615"
         y="834.03278"
         style="font-size:68.76880646px;font-style:normal;font-variant:normal;font-weight:normal;font-stretch:normal;text-align:start;text-anchor:start;font-family:Droid Serif;-inkscape-font-specification:Droid Serif">nodetoy</tspan><tspan
         sodipodi:role="line"
         x="57.012615"
         y="919.99377"
         style="font-size:68.76880646px;font-style:normal;font-variant:normal;font-weight:normal;font-stretch:normal;text-align:start;text-anchor:start;font-family:Droid Serif;-inkscape-font-specification:Droid Serif"
         id="tspan4561">an instant backend</tspan></text>
  </g>
</svg>
