<?xml version="1.0" encoding="UTF-8" standalone="no"?>
<!-- Created with Inkscape (http://www.inkscape.org/) -->

<svg
   xmlns:dc="http://purl.org/dc/elements/1.1/"
   xmlns:cc="http://creativecommons.org/ns#"
   xmlns:rdf="http://www.w3.org/1999/02/22-rdf-syntax-ns#"
   xmlns:svg="http://www.w3.org/2000/svg"
   xmlns="http://www.w3.org/2000/svg"
   xmlns:xlink="http://www.w3.org/1999/xlink"
   xmlns:sodipodi="http://sodipodi.sourceforge.net/DTD/sodipodi-0.dtd"
   xmlns:inkscape="http://www.inkscape.org/namespaces/inkscape"
   width="20.280001"
   height="22.540001"
   id="svg9280"
   version="1.1"
   inkscape:version="0.48.1 r9760"
   sodipodi:docname="t.svg">
  <defs
     id="defs9282">
    <linearGradient
       id="linearGradient4531">
      <stop
         style="stop-color:#abc837;stop-opacity:1;"
         offset="0"
         id="stop4533" />
      <stop
         style="stop-color:#98b231;stop-opacity:1;"
         offset="1"
         id="stop4535" />
    </linearGradient>
    <linearGradient
       id="linearGradient4539">
      <stop
         style="stop-color:#ff7f2a;stop-opacity:1;"
         offset="0"
         id="stop4541" />
      <stop
         style="stop-color:#ef5f00;stop-opacity:1;"
         offset="1"
         id="stop4543" />
    </linearGradient>
    <linearGradient
       inkscape:collect="always"
       xlink:href="#linearGradient4521"
       id="linearGradient4527"
       x1="-203.44073"
       y1="318.85025"
       x2="102.08528"
       y2="318.85025"
       gradientUnits="userSpaceOnUse" />
    <linearGradient
       id="linearGradient4521">
      <stop
         style="stop-color:#fa0000;stop-opacity:1;"
         offset="0"
         id="stop4523" />
      <stop
         style="stop-color:#e60000;stop-opacity:1;"
         offset="1"
         id="stop4525" />
    </linearGradient>
    <linearGradient
       inkscape:collect="always"
       xlink:href="#linearGradient4521"
       id="linearGradient4529"
       gradientUnits="userSpaceOnUse"
       x1="-40.889587"
       y1="122.47588"
       x2="-46.013336"
       y2="519.95709" />
    <linearGradient
       id="linearGradient9236">
      <stop
         style="stop-color:#fa0000;stop-opacity:1;"
         offset="0"
         id="stop9238" />
      <stop
         style="stop-color:#e60000;stop-opacity:1;"
         offset="1"
         id="stop9240" />
    </linearGradient>
    <filter
       color-interpolation-filters="sRGB"
       inkscape:collect="always"
       id="filter4227">
      <feGaussianBlur
         inkscape:collect="always"
         stdDeviation="5.7725453"
         id="feGaussianBlur4229" />
    </filter>
    <filter
       color-interpolation-filters="sRGB"
       inkscape:collect="always"
       id="filter4464">
      <feGaussianBlur
         inkscape:collect="always"
         stdDeviation="4.6955718"
         id="feGaussianBlur4466" />
    </filter>
    <filter
       color-interpolation-filters="sRGB"
       inkscape:collect="always"
       id="filter4517">
      <feGaussianBlur
         inkscape:collect="always"
         stdDeviation="3.5896298"
         id="feGaussianBlur4519" />
    </filter>
  </defs>
  <sodipodi:namedview
     id="base"
     pagecolor="#ffffff"
     bordercolor="#666666"
     borderopacity="1.0"
     inkscape:pageopacity="0.0"
     inkscape:pageshadow="2"
     inkscape:zoom="3.959798"
     inkscape:cx="56.637233"
     inkscape:cy="36.899439"
     inkscape:document-units="px"
     inkscape:current-layer="layer1"
     showgrid="false"
     inkscape:window-width="942"
     inkscape:window-height="661"
     inkscape:window-x="605"
     inkscape:window-y="106"
     inkscape:window-maximized="0" />
  <metadata
     id="metadata9285">
    <rdf:RDF>
      <cc:Work
         rdf:about="">
        <dc:format>image/svg+xml</dc:format>
        <dc:type
           rdf:resource="http://purl.org/dc/dcmitype/StillImage" />
        <dc:title></dc:title>
      </cc:Work>
    </rdf:RDF>
  </metadata>
  <g
     inkscape:label="Layer 1"
     inkscape:groupmode="layer"
     id="layer1"
     transform="translate(0,-1029.8222)">
    <path
       style="fill:#ff0000;stroke:#c80000;stroke-width:0.05899087;stroke-linecap:butt;stroke-linejoin:round;stroke-miterlimit:4;stroke-opacity:1;stroke-dasharray:none"
       d="m 0.85259149,1051.2515 17.39557051,-0.6074 -1.04926,-17.8926 -15.5731763,0.497 z"
       id="path2997"
       inkscape:connector-curvature="0" />
    <g
       transform="matrix(0.05690611,-0.00254177,0.00249756,0.04553765,11.275388,1027.4137)"
       style="font-size:151.78837585px;font-style:normal;font-variant:normal;font-weight:bold;font-stretch:normal;text-align:start;line-height:125%;letter-spacing:0px;word-spacing:0px;writing-mode:lr-tb;text-anchor:start;opacity:0.9;fill:#ffffff;fill-opacity:1;stroke:none;filter:url(#filter4227);font-family:Droid Serif;-inkscape-font-specification:Droid Serif Bold"
       id="text2999-5-7">
      <path
         inkscape:connector-curvature="0"
         d="m -16.024388,384.72235 c 0.09106,6.74338 0.707451,12.22581 1.858974,16.37923 1.166472,4.20864 2.744269,7.50337 4.7330786,9.85559 2.1430981,2.37445 4.5605608,4.02428 7.2467587,4.93811 2.68858118,0.74922 5.5819129,1.17078 8.6764854,1.2631 l 18.2063813,0.54343 2.137674,28.7811 -152.849124,-5.26447 4.12221,-27.892 17.46274,0.52121 c 3.12394,0.0932 6.015922,-0.15023 8.671311,-0.7302 2.669218,-0.74303 5.068604,-2.22933 7.191372,-4.44935 2.109196,-2.20595 3.890481,-5.36726 5.340258,-9.45613 1.431776,-4.03861 2.440531,-9.42055 3.030004,-16.07668 l 15.648426,-176.72645 -23.007932,0.0926 c -4.283298,0.0174 -7.924,0.417 -10.932151,1.20027 -3.015718,0.78552 -5.587318,1.92137 -7.718598,3.41268 -2.03582,1.42131 -3.7263,3.2066 -5.07196,5.36447 -1.26311,2.17765 -2.35406,4.6609 -3.27226,7.4595 l -5.21354,16.31719 -20.46057,-0.0304 20.22066,-60.76676 164.327633,1.70447 13.341043,59.35606 -21.508749,-0.0319 -4.354393,-16.72246 c -0.74409,-2.86288 -1.742841,-5.4006 -2.993753,-7.62293 -1.140494,-2.20038 -2.767988,-4.01562 -4.879822,-5.45435 -2.008436,-1.50829 -4.548652,-2.64837 -7.621267,-3.42583 -3.059292,-0.7737 -6.7960257,-1.15046 -11.2156517,-1.13282 l -23.5301433,0.0947 2.414905,178.49905"
         id="path3980-2"
         sodipodi:nodetypes="ccccccccccccccccccccccccccccccccc"
         style="fill:#ffffff;fill-opacity:1" />
    </g>
    <g
       transform="matrix(0.05690611,-0.00254177,0.00249756,0.04553765,11.146355,1027.337)"
       style="font-size:151.78837585px;font-style:normal;font-variant:normal;font-weight:bold;font-stretch:normal;text-align:start;line-height:125%;letter-spacing:0px;word-spacing:0px;writing-mode:lr-tb;text-anchor:start;opacity:0.75;fill:#000000;fill-opacity:1;stroke:none;font-family:Droid Serif;-inkscape-font-specification:Droid Serif Bold"
       id="text2999-5">
      <path
         inkscape:connector-curvature="0"
         d="m -16.024388,384.72235 c 0.09106,6.74338 0.707451,12.22581 1.858974,16.37923 1.166472,4.20864 2.744269,7.50337 4.7330786,9.85559 2.1430981,2.37445 4.5605608,4.02428 7.2467587,4.93811 2.68858118,0.74922 5.5819129,1.17078 8.6764854,1.2631 l 18.2063813,0.54343 2.137674,28.7811 -152.849124,-5.26447 4.12221,-27.892 17.46274,0.52121 c 3.12394,0.0932 6.015922,-0.15023 8.671311,-0.7302 2.669218,-0.74303 5.068604,-2.22933 7.191372,-4.44935 2.109196,-2.20595 3.890481,-5.36726 5.340258,-9.45613 1.431776,-4.03861 2.440531,-9.42055 3.030004,-16.07668 l 15.648426,-176.72645 -23.007932,0.0926 c -4.283298,0.0174 -7.924,0.417 -10.932151,1.20027 -3.015718,0.78552 -5.587318,1.92137 -7.718598,3.41268 -2.03582,1.42131 -3.7263,3.2066 -5.07196,5.36447 -1.26311,2.17765 -2.35406,4.6609 -3.27226,7.4595 l -5.21354,16.31719 -20.46057,-0.0304 20.22066,-60.76676 164.327633,1.70447 13.341043,59.35606 -21.508749,-0.0319 -4.354393,-16.72246 c -0.74409,-2.86288 -1.742841,-5.4006 -2.993753,-7.62293 -1.140494,-2.20038 -2.767988,-4.01562 -4.879822,-5.45435 -2.008436,-1.50829 -4.548652,-2.64837 -7.621267,-3.42583 -3.059292,-0.7737 -6.7960257,-1.15046 -11.2156517,-1.13282 l -23.5301433,0.0947 2.414905,178.49905"
         id="path3980"
         sodipodi:nodetypes="ccccccccccccccccccccccccccccccccc"
         style="fill:#000000;fill-opacity:1" />
    </g>
    <g
       transform="matrix(0.05690611,-0.00254177,0.00249756,0.04553765,11.159447,1027.3538)"
       style="font-size:151.78837585px;font-style:normal;font-variant:normal;font-weight:bold;font-stretch:normal;text-align:start;line-height:125%;letter-spacing:0px;word-spacing:0px;writing-mode:lr-tb;text-anchor:start;fill:url(#linearGradient4527);fill-opacity:1;stroke:none;font-family:Droid Serif;-inkscape-font-specification:Droid Serif Bold"
       id="text2999-5-6">
      <path
         id="path3980-7"
         style="fill:url(#linearGradient4529);fill-opacity:1;stroke:none"
         d="m -16.024388,384.72235 c 0.09106,6.74338 0.707451,12.22581 1.858974,16.37923 1.166472,4.20864 2.744269,7.50337 4.7330786,9.85559 2.1430981,2.37445 4.5605608,4.02428 7.2467587,4.93811 2.68858118,0.74922 5.5819129,1.17078 8.6764854,1.2631 l 18.2063813,0.54343 2.137674,28.7811 -152.849124,-5.26447 4.12221,-27.892 17.46274,0.52121 c 3.12394,0.0932 6.015922,-0.15023 8.671311,-0.7302 2.669218,-0.74303 5.068604,-2.22933 7.191372,-4.44935 2.109196,-2.20595 3.890481,-5.36726 5.340258,-9.45613 1.431776,-4.03861 2.440531,-9.42055 3.030004,-16.07668 l 15.648426,-176.72645 -23.007932,0.0926 c -4.283298,0.0174 -7.924,0.417 -10.932151,1.20027 -3.015718,0.78552 -5.587318,1.92137 -7.718598,3.41268 -2.03582,1.42131 -3.7263,3.2066 -5.07196,5.36447 -1.26311,2.17765 -2.35406,4.6609 -3.27226,7.4595 l -5.21354,16.31719 -20.46057,-0.0304 20.22066,-60.76676 164.327633,1.70447 13.341043,59.35606 -21.508749,-0.0319 -4.354393,-16.72246 c -0.74409,-2.86288 -1.742841,-5.4006 -2.993753,-7.62293 -1.140494,-2.20038 -2.767988,-4.01562 -4.879822,-5.45435 -2.008436,-1.50829 -4.548652,-2.64837 -7.621267,-3.42583 -3.059292,-0.7737 -6.7960257,-1.15046 -11.2156517,-1.13282 l -23.5301433,0.0947 2.414905,178.49905 m -187.416342,129.0817 305.52601,3.71365 -1.19063,-392.98499 -273.47351,-4.34999 z"
         inkscape:connector-curvature="0" />
    </g>
  </g>
</svg>
